<?xml version="1.0" standalone="no"?>
<!DOCTYPE svg PUBLIC "-//W3C//DTD SVG 20010904//EN"
 "http://www.w3.org/TR/2001/REC-SVG-20010904/DTD/svg10.dtd">
<svg version="1.0" xmlns="http://www.w3.org/2000/svg"
 width="325.000000pt" height="399.000000pt" viewBox="0 0 325.000000 399.000000"
 preserveAspectRatio="xMidYMid meet">

<g transform="translate(0.000000,399.000000) scale(0.100000,-0.100000)"
fill="#000000" stroke="none">
<path d="M0 2883 c0 -689 4 -1102 10 -1093 5 8 16 46 25 85 34 151 47 185 71
191 46 12 57 -21 28 -78 -16 -31 -16 -32 9 -50 l26 -19 -20 -47 c-11 -26 -33
-74 -50 -108 -32 -67 -35 -84 -15 -84 13 0 84 74 117 121 19 27 49 20 49 -12
0 -28 -43 -114 -82 -163 -17 -21 -34 -52 -39 -70 -4 -17 -11 -41 -14 -53 -9
-27 8 -31 27 -7 7 9 34 39 59 68 26 28 56 67 66 86 30 53 49 46 45 -15 -4 -48
-25 -97 -62 -140 -10 -11 -23 -43 -30 -72 -13 -58 -13 -58 53 -122 20 -20 37
-44 37 -53 0 -9 18 -27 39 -39 22 -12 45 -35 52 -51 6 -16 26 -36 43 -44 17
-8 57 -30 90 -49 32 -19 66 -35 76 -35 11 0 21 -4 25 -9 5 -9 110 -62 148 -74
24 -9 21 -19 -13 -42 -34 -22 -38 -40 -13 -49 15 -6 14 -9 -5 -29 -18 -18 -41
-24 -120 -33 -158 -17 -246 13 -323 109 -62 77 -82 142 -69 222 17 101 19 96
-75 145 -47 24 -93 55 -101 68 -23 35 -47 62 -56 62 -5 0 -8 -184 -8 -410 l0
-410 734 0 c511 0 743 -3 765 -11 50 -18 61 -51 61 -184 0 -115 0 -117 -29
-146 l-29 -29 -219 0 c-120 0 -458 -3 -751 -7 l-533 -6 3 -96 3 -96 1622 -3
1623 -2 0 89 c0 124 -9 181 -28 181 -13 0 -13 -3 -4 -12 28 -28 3 -68 -29 -47
-11 7 -12 11 -1 17 10 7 10 11 -2 21 -12 10 -15 8 -18 -14 -4 -36 -22 -36 -28
-1 -3 16 -11 31 -18 34 -10 3 -10 -2 0 -23 10 -21 9 -28 -2 -35 -23 -14 -35
-1 -36 41 -1 40 -1 40 35 39 103 -5 131 -1 131 20 0 20 -7 20 -295 20 l-295 0
0 268 0 269 -25 23 c-14 14 -38 25 -53 26 -75 3 -75 3 -62 19 8 10 21 13 33 9
12 -4 17 -2 13 4 -6 10 43 52 61 52 6 0 18 9 28 20 10 11 23 20 29 20 16 0
114 76 179 137 61 58 77 92 77 168 0 36 5 57 16 66 13 10 15 24 11 62 -6 43
-3 51 18 72 15 13 24 31 23 45 -4 32 45 68 67 50 22 -18 19 -43 -10 -70 -14
-13 -25 -31 -25 -39 0 -9 -6 -28 -14 -42 -15 -29 -5 -59 19 -59 8 0 15 -8 15
-18 0 -29 -12 -34 -27 -12 -24 35 -32 22 -30 -48 2 -52 -2 -75 -17 -101 -21
-35 -12 -36 27 -3 9 8 19 13 22 10 9 -9 10 -112 2 -165 l-9 -53 111 0 111 0 0
1475 0 1475 -1625 0 -1625 0 0 -1107z m1840 997 c0 -5 -4 -10 -9 -10 -4 0 -18
-28 -31 -62 l-22 -62 21 -66 c12 -37 31 -74 42 -84 27 -23 20 -40 -19 -44 -17
-2 -36 -10 -42 -18 -15 -17 -44 -18 -70 -2 -37 24 -34 -4 4 -38 23 -20 33 -35
25 -35 -64 -7 -99 -5 -127 7 l-33 13 40 54 c71 93 48 106 -34 20 -57 -58 -66
-84 -44 -126 17 -32 18 -32 32 -13 12 16 14 16 39 -3 31 -25 74 -42 82 -34 3
4 -3 12 -14 20 -22 15 -28 45 -7 38 12 -5 112 -13 176 -14 29 -1 32 -3 21 -16
-7 -8 -20 -15 -29 -15 -9 0 -23 -5 -31 -10 -13 -8 -13 -11 -1 -19 26 -17 0
-31 -55 -31 l-56 0 30 -30 c27 -26 38 -30 87 -30 68 0 109 22 101 55 -4 16 7
39 41 84 26 33 54 61 61 61 38 0 -33 -192 -73 -198 -11 -2 -27 -17 -36 -35
-34 -71 -190 -105 -255 -55 -75 56 -183 202 -212 287 -13 37 -17 331 -4 331
12 -1 42 -27 42 -37 0 -5 25 -17 55 -27 33 -10 55 -23 55 -32 0 -32 100 -4
114 32 4 9 4 32 0 50 -5 27 -3 34 10 34 8 0 20 9 27 21 7 14 17 19 30 16 13
-3 24 2 32 14 12 20 37 26 37 9z m-297 -67 c-26 -20 -43 -15 -43 11 0 23 2 24
30 13 28 -11 29 -13 13 -24z m422 22 c-16 -8 -38 -14 -49 -15 -15 0 -16 3 -6
15 7 9 28 15 49 14 l36 -1 -30 -13z m-89 -114 c-9 -13 48 -24 92 -17 46 8 55
1 76 -48 23 -55 20 -76 -15 -113 -30 -30 -34 -31 -58 -18 -14 7 -50 38 -79 68
-42 45 -52 63 -52 90 0 18 3 37 7 40 10 10 35 8 29 -2z m-1046 -141 c0 -5 -4
-10 -10 -10 -5 0 -10 5 -10 10 0 6 5 10 10 10 6 0 10 -4 10 -10z m1971 -32
c10 -13 18 -32 18 -43 -1 -20 -1 -20 -6 0 -3 11 -14 26 -24 33 -11 7 -19 17
-19 23 0 15 11 10 31 -13z m-1994 -10 c-3 -8 -6 -5 -6 6 -1 11 2 17 5 13 3 -3
4 -12 1 -19z m1117 -30 c9 -12 12 -25 8 -29 -12 -11 -78 -18 -92 -9 -9 6 -6 9
11 12 13 1 28 13 34 26 12 28 20 28 39 0z m840 -34 c9 -3 16 -14 16 -23 0 -30
-12 -32 -27 -5 -19 37 -18 39 11 28z m-1886 -99 c-9 -20 -8 -28 6 -44 23 -25
13 -45 -15 -30 -16 8 -20 19 -18 47 3 40 16 65 30 57 4 -3 3 -17 -3 -30z
m1952 21 c0 -2 -7 -7 -16 -10 -8 -3 -12 -2 -9 4 6 10 25 14 25 6z m-58 -30
c17 -23 17 -24 -12 -30 -32 -6 -41 -26 -12 -26 16 -1 16 -1 0 -14 -10 -7 -18
-23 -18 -35 0 -16 -6 -21 -24 -21 -24 0 -41 -23 -30 -41 3 -5 1 -9 -4 -9 -12
0 -25 47 -16 61 3 6 13 8 21 5 12 -5 14 -1 10 14 -6 22 19 80 34 80 5 0 9 9 9
20 0 27 21 25 42 -4z m-1942 -41 c0 -8 -4 -15 -10 -15 -5 0 -7 7 -4 15 4 8 8
15 10 15 2 0 4 -7 4 -15z m130 -55 c0 -5 5 -10 10 -10 6 0 24 -10 40 -22 23
-16 30 -30 30 -55 0 -30 3 -33 29 -33 16 0 34 -7 41 -15 7 -8 19 -15 26 -15
17 0 19 -26 3 -36 -6 -3 -24 3 -40 15 -15 11 -35 21 -43 21 -8 0 -18 5 -21 10
-3 6 -14 10 -25 10 -13 0 -17 5 -13 20 4 13 -1 22 -13 26 -11 4 -27 15 -36 25
-22 23 -24 69 -3 69 8 0 15 -4 15 -10z m663 -105 c32 -38 66 -88 77 -112 20
-45 24 -47 104 -43 31 1 45 -4 70 -29 30 -29 55 -37 169 -59 42 -8 47 -7 47 8
0 10 -8 21 -17 25 -17 6 -17 7 -1 16 12 7 25 6 38 -1 16 -9 26 -7 48 8 15 11
43 23 62 27 19 4 50 18 67 32 l33 24 27 -28 c28 -27 82 -53 115 -53 9 0 61
-19 114 -42 143 -62 209 -126 280 -273 l54 -110 10 -161 c5 -88 11 -167 14
-175 2 -7 7 -50 10 -94 l6 -80 -82 88 c-46 48 -95 95 -110 105 -14 9 -56 38
-92 64 -117 84 -300 169 -476 222 -164 50 -190 56 -315 78 -186 32 -529 32
-725 -1 -207 -34 -404 -92 -512 -151 -10 -6 -27 -10 -39 -10 -16 0 -19 4 -14
18 4 9 16 46 27 82 10 36 24 75 29 88 5 13 9 31 9 41 0 42 162 203 237 236 32
14 65 29 73 34 8 4 40 14 70 21 30 7 65 18 76 26 12 7 31 10 42 8 11 -3 23 -1
26 5 4 6 17 11 30 11 13 0 31 9 41 20 32 35 109 23 143 -23 15 -19 34 -14 26
7 -3 8 10 26 31 43 39 30 78 96 90 151 4 18 12 31 18 29 7 -2 38 -34 70 -72z
m927 21 c0 -7 -7 -19 -15 -26 -16 -13 -20 -3 -9 24 8 20 24 21 24 2z m30 -21
c0 -8 -4 -15 -10 -15 -5 0 -10 7 -10 15 0 8 5 15 10 15 6 0 10 -7 10 -15z
m-2360 -5 c0 -5 -4 -10 -10 -10 -5 0 -10 5 -10 10 0 6 5 10 10 10 6 0 10 -4
10 -10z m70 -15 c-7 -8 -16 -12 -21 -9 -13 8 -1 24 18 24 13 0 13 -3 3 -15z
m170 -39 c0 -12 -51 -39 -58 -31 -3 2 3 21 13 41 17 35 18 36 31 19 8 -10 14
-24 14 -29z m-136 -27 c-7 -12 -44 -12 -44 0 0 5 6 11 13 14 17 6 38 -3 31
-14z m156 -9 c0 -5 -4 -10 -10 -10 -5 0 -10 5 -10 10 0 6 5 10 10 10 6 0 10
-4 10 -10z m-50 -56 c0 -7 -11 -19 -25 -28 -14 -9 -25 -25 -25 -36 0 -11 -2
-20 -4 -20 -2 0 -12 -3 -21 -7 -14 -5 -16 -2 -10 18 4 13 16 32 27 41 14 13
18 25 14 42 -6 23 -4 23 19 13 14 -7 25 -17 25 -23z m140 21 c0 -20 -20 -29
-56 -27 -18 2 -36 -3 -39 -9 -6 -8 -10 -7 -16 2 -13 21 -11 29 11 37 37 13
100 11 100 -3z m-288 -10 c0 -5 -5 -11 -11 -13 -6 -2 -11 4 -11 13 0 9 5 15
11 13 6 -2 11 -8 11 -13z m378 -5 c0 -14 -36 -31 -54 -24 -9 3 -19 -3 -27 -18
-16 -29 -28 -41 -61 -55 -24 -11 -27 -10 -30 8 l-3 21 -27 -21 c-14 -12 -34
-21 -45 -20 -15 0 -15 2 4 11 12 6 23 20 25 32 2 14 11 21 28 22 14 1 33 5 44
9 16 7 17 6 6 -14 -20 -38 -5 -33 32 12 29 33 44 43 72 44 20 2 36 -1 36 -7z
m-290 -20 c0 -5 -4 -10 -10 -10 -5 0 -10 5 -10 10 0 6 5 10 10 10 6 0 10 -4
10 -10z m280 -29 c0 -9 -23 -21 -41 -21 -4 0 -6 7 -3 15 7 16 44 21 44 6z
m-600 -41 c0 -5 -5 -10 -11 -10 -5 0 -7 5 -4 10 3 6 8 10 11 10 2 0 4 -4 4
-10z m265 -10 c-3 -5 -10 -10 -16 -10 -5 0 -9 5 -9 10 0 6 7 10 16 10 8 0 12
-4 9 -10z m-25 -24 c0 -3 -4 -8 -10 -11 -5 -3 -10 -1 -10 4 0 6 5 11 10 11 6
0 10 -2 10 -4z m-150 -16 c0 -5 -2 -10 -4 -10 -3 0 -8 5 -11 10 -3 6 -1 10 4
10 6 0 11 -4 11 -10z m70 -40 c0 -5 -9 -14 -20 -20 -22 -12 -27 -1 -8 18 14
14 28 16 28 2z m-70 -15 c0 -8 -7 -15 -16 -15 -14 0 -14 3 -4 15 7 8 14 15 16
15 2 0 4 -7 4 -15z m10 -99 c0 -3 -4 -8 -10 -11 -5 -3 -10 -1 -10 4 0 6 5 11
10 11 6 0 10 -2 10 -4z m1396 -449 c46 -24 61 -67 43 -124 -19 -62 -54 -87
-132 -93 l-61 -5 -12 -40 c-8 -31 -16 -41 -35 -43 -49 -5 -51 6 -25 130 34
158 44 196 57 200 23 8 135 -9 165 -25z m-1196 19 c0 -3 -4 -8 -10 -11 -5 -3
-10 -1 -10 4 0 6 5 11 10 11 6 0 10 -2 10 -4z m1630 -101 c0 -31 3 -35 25 -35
32 0 49 -31 31 -55 -9 -12 -21 -16 -39 -13 -33 6 -42 -5 -51 -59 -4 -31 -3
-43 6 -45 7 0 18 -2 23 -3 6 -2 16 -3 23 -4 6 0 12 -12 12 -26 0 -38 -40 -53
-93 -34 -53 18 -65 48 -50 122 9 43 8 55 -4 69 -19 21 -10 48 17 55 12 3 20
14 20 27 0 30 7 36 47 36 31 0 33 -2 33 -35z m-295 -14 c3 -6 -2 -42 -10 -80
-17 -75 -15 -91 14 -91 28 0 48 31 56 87 9 71 25 90 62 77 32 -11 33 -29 7
-121 -11 -42 -12 -57 -2 -72 24 -39 -35 -69 -72 -36 -13 12 -22 13 -48 3 -40
-15 -81 -2 -101 33 -12 23 -12 35 4 105 10 43 23 85 28 92 11 14 53 16 62 3z
m-580 -281 c3 -5 2 -27 -4 -47 -24 -94 -31 -145 -21 -161 5 -10 10 -12 10 -4
0 17 49 15 56 -3 8 -20 -14 -72 -33 -79 -22 -9 -36 3 -22 20 6 7 8 21 5 30 -5
13 -9 14 -21 4 -12 -10 -21 -10 -41 -1 -14 6 -36 8 -50 5 -34 -9 -74 19 -74
52 l0 26 -35 -31 c-55 -48 -125 -40 -146 17 l-10 27 -17 -21 c-25 -32 -59 -46
-93 -39 -56 13 -75 73 -40 131 32 53 116 52 145 -1 6 -11 12 -22 13 -24 1 -2
16 8 33 23 39 32 85 34 117 4 13 -12 23 -33 23 -47 0 -26 0 -25 20 7 24 39 60
55 94 42 22 -8 25 -6 35 36 8 33 16 44 31 44 10 0 22 -4 25 -10z m-625 -25 c9
-11 17 -12 32 -4 12 7 24 7 29 2 14 -14 -26 -182 -48 -205 -39 -38 -149 -31
-141 10 3 13 14 17 52 17 30 0 51 5 53 13 3 8 -6 12 -26 12 -73 0 -95 78 -37
136 36 36 66 43 86 19z m826 -31 c-6 -45 -5 -46 18 -40 33 8 76 -27 76 -62 l1
-27 17 28 c24 39 82 56 116 33 30 -19 44 -62 27 -79 -7 -7 -29 -12 -49 -12
-51 0 -52 -19 -2 -23 46 -4 49 -19 9 -40 -41 -21 -93 0 -110 46 l-9 24 -29
-31 c-29 -31 -73 -42 -86 -21 -3 5 -21 9 -38 7 -38 -2 -38 -2 -9 130 23 107
26 113 54 113 19 0 20 -4 14 -46z m1832 -29 c2 -10 -6 -31 -18 -47 l-22 -30
21 -14 c22 -16 30 -74 11 -74 -5 0 -10 13 -10 29 0 41 -17 48 -48 18 -21 -20
-31 -23 -44 -16 -27 15 -21 46 12 71 17 12 29 27 27 33 -19 48 -18 55 5 64 27
11 61 -7 66 -34z m-1473 -15 c0 -21 45 -40 67 -29 10 5 18 16 18 24 0 9 10 15
25 15 20 0 25 -5 25 -25 0 -18 5 -25 19 -25 11 0 23 -5 26 -10 10 -17 -16 -41
-36 -35 -11 4 -19 5 -19 3 0 -2 -4 -18 -9 -36 -9 -30 -8 -34 15 -42 14 -6 24
-17 24 -30 0 -16 -7 -20 -31 -20 -58 0 -71 15 -67 78 3 57 3 57 -27 60 -52 6
-78 -60 -30 -78 44 -17 26 -50 -26 -50 -10 0 -27 8 -37 18 -25 25 -24 141 1
166 9 10 17 22 17 27 0 6 10 9 23 7 12 -2 22 -10 22 -18z m683 -12 c5 -8 6
-22 1 -33 -15 -38 -11 -53 15 -48 32 7 64 -12 72 -42 l6 -24 30 29 c54 55 128
31 128 -41 l0 -39 -50 0 c-27 0 -50 -4 -50 -10 0 -5 18 -10 40 -10 33 0 40 -4
40 -19 0 -22 -19 -31 -65 -31 -25 0 -40 8 -59 31 l-26 31 -31 -26 c-32 -27
-63 -34 -74 -15 -4 5 -21 9 -38 7 -30 -3 -32 -1 -31 27 2 53 32 196 45 211 14
17 33 18 47 2z m-367 -59 c13 -13 19 -30 17 -47 -3 -25 -7 -27 -50 -30 -34 -2
-48 -7 -48 -18 0 -10 10 -14 35 -12 46 3 55 -9 25 -34 -44 -35 -130 4 -130 59
0 81 98 135 151 82z m157 -3 c11 -11 -13 -40 -39 -46 -19 -5 -27 -17 -38 -58
-12 -44 -18 -52 -37 -52 -12 0 -25 4 -28 8 -4 7 14 95 29 148 4 13 100 12 113
0z m710 -15 c8 -4 12 -17 10 -27 -2 -13 4 -20 20 -22 30 -5 25 -36 -6 -40 -40
-6 -57 -78 -19 -84 14 -2 22 -10 22 -23 0 -27 -47 -32 -82 -10 -23 16 -25 20
-18 71 4 36 3 54 -4 54 -6 0 -11 -4 -11 -10 0 -5 -7 -10 -15 -10 -17 0 -20
-16 -5 -25 17 -10 11 -41 -10 -60 -27 -24 -79 -24 -115 -1 -24 16 -26 20 -12
33 11 12 19 12 35 4 47 -25 58 -5 12 21 -42 24 -47 44 -20 74 26 26 86 34 108
12 15 -15 62 5 62 26 0 8 6 17 13 19 18 8 21 8 35 -2z m-700 -103 c19 -19 14
-45 -15 -78 -21 -22 -32 -28 -43 -20 -13 8 -13 11 2 26 13 13 14 21 5 35 -20
32 24 64 51 37z m966 -94 c9 -22 7 -54 -2 -54 -11 0 -43 56 -35 64 12 11 31 6
37 -10z m-2196 -20 c2 -12 12 -24 23 -27 35 -9 21 -45 -16 -37 -30 6 -47 -76
-17 -87 20 -8 33 -24 26 -35 -10 -15 -71 -8 -86 10 -21 25 -18 143 5 166 9 10
17 22 17 27 0 21 45 4 48 -17z m485 -35 l-2 -45 32 4 c36 4 59 -14 57 -45 0
-10 -1 -43 -3 -73 -2 -59 -16 -72 -51 -47 -17 12 -18 19 -9 53 12 47 7 64 -17
64 -19 0 -23 -8 -35 -68 -8 -37 -29 -51 -54 -35 -10 7 -23 7 -37 1 -15 -7 -30
-6 -50 4 -28 13 -29 16 -30 91 0 42 4 77 8 77 5 0 13 12 18 26 12 31 44 29 48
-4 2 -14 14 -27 29 -33 32 -12 25 -33 -13 -39 -25 -4 -29 -10 -32 -43 -3 -32
0 -37 17 -37 12 0 21 -4 21 -10 0 -5 4 -10 10 -10 5 0 12 17 15 38 9 50 36
165 42 175 3 4 12 7 21 5 13 -3 17 -14 15 -49z m-319 -10 c51 -23 50 -113 0
-146 -30 -19 -88 -21 -109 -3 -22 18 -29 74 -13 106 22 47 73 65 122 43z m730
-15 c9 -3 16 -15 16 -26 0 -12 9 -22 20 -25 28 -7 21 -37 -8 -41 -14 -2 -27
-14 -33 -28 -13 -37 -12 -44 16 -54 28 -11 33 -35 9 -44 -28 -11 -44 -6 -68
17 -21 21 -23 30 -16 64 4 24 3 49 -3 59 -7 12 -6 20 5 28 8 6 20 21 27 34 13
24 13 24 35 16z m-165 -45 c16 -15 21 -30 19 -52 -3 -31 -5 -32 -50 -32 -60 0
-68 -19 -10 -23 34 -3 43 -7 40 -20 -2 -13 -16 -18 -52 -20 -62 -4 -86 16 -86
70 0 78 86 126 139 77z m615 5 c9 -3 16 -17 16 -30 0 -17 6 -24 20 -24 13 0
20 -7 20 -20 0 -16 -7 -20 -30 -20 -17 0 -30 -5 -30 -12 0 -7 -3 -23 -6 -35
-5 -18 -1 -25 22 -34 18 -6 35 -7 44 -1 22 13 40 3 40 -23 0 -26 -26 -41 -45
-25 -7 5 -26 7 -42 4 -60 -12 -92 27 -74 91 5 21 6 37 0 41 -14 8 -11 44 4 44
8 0 19 11 25 25 13 27 13 28 36 19z m-246 -57 c7 -15 10 -37 7 -48 -6 -19 -13
-21 -56 -17 -37 4 -49 2 -49 -8 0 -10 13 -14 40 -14 33 0 40 -4 40 -19 0 -40
-79 -43 -117 -5 -21 21 -24 32 -20 61 4 20 16 47 29 60 18 20 31 23 68 21 38
-3 47 -7 58 -31z m145 9 c23 -18 22 -47 -3 -53 -20 -5 -20 -6 -3 -25 16 -18
16 -22 2 -46 -12 -22 -23 -28 -59 -30 -56 -4 -91 17 -71 42 10 11 18 13 31 6
10 -6 27 -10 37 -9 17 0 17 1 -1 12 -33 20 -56 46 -56 62 0 44 82 72 123 41z
m332 -436 c-3 -5 -17 -10 -31 -10 -14 0 -22 4 -19 10 3 6 17 10 31 10 14 0 22
-4 19 -10z m185 -650 c0 -38 18 -40 22 -3 2 17 10 29 21 31 14 3 16 -2 12 -33
-4 -32 -2 -35 10 -25 8 7 15 23 15 36 0 15 6 24 15 24 8 0 15 -8 15 -17 0 -15
1 -15 13 1 10 13 24 17 57 14 44 -3 45 -4 48 -39 l3 -36 -83 -2 c-46 -2 -101
-3 -123 -4 l-40 -2 -3 43 c-2 25 1 42 7 42 6 0 11 -13 11 -30z m260 -10 c0
-22 -4 -40 -10 -40 -5 0 -10 18 -10 40 0 22 5 40 10 40 6 0 10 -18 10 -40z
m110 1 c0 -22 -3 -42 -7 -44 -5 -2 -27 -2 -50 1 -42 4 -43 5 -43 41 l0 37 50
2 50 2 0 -39z"/>
<path d="M1464 2935 c-10 -8 -27 -15 -37 -15 -12 0 -17 -6 -15 -17 2 -9 6 -16
10 -15 5 2 21 5 38 8 16 4 30 13 30 20 0 8 5 14 11 14 5 0 7 5 4 10 -8 14 -18
13 -41 -5z"/>
<path d="M2090 2876 c0 -18 43 -51 48 -37 3 9 -32 51 -43 51 -3 0 -5 -6 -5
-14z"/>
<path d="M2020 2771 c0 -5 -9 -13 -20 -16 -11 -3 -20 -11 -20 -16 0 -11 55 16
65 31 3 5 -1 10 -9 10 -9 0 -16 -4 -16 -9z"/>
<path d="M1910 2720 c0 -5 5 -10 10 -10 6 0 10 5 10 10 0 6 -4 10 -10 10 -5 0
-10 -4 -10 -10z"/>
<path d="M1425 2208 c-14 -64 -11 -83 14 -86 53 -8 95 44 71 88 -16 30 -78 28
-85 -2z"/>
<path d="M610 1800 c-15 -28 -3 -60 21 -60 22 0 45 41 36 64 -9 23 -44 20 -57
-4z"/>
<path d="M796 1791 c-24 -27 -17 -56 14 -56 22 0 25 4 25 34 0 41 -15 49 -39
22z"/>
<path d="M971 1771 c-15 -28 -14 -51 4 -57 23 -9 46 16 43 45 -4 32 -33 39
-47 12z"/>
<path d="M428 1815 c-10 -21 -9 -29 5 -42 13 -14 19 -14 32 -3 21 17 16 64 -7
68 -11 2 -22 -6 -30 -23z"/>
<path d="M1290 1740 c-15 -27 -3 -60 20 -60 21 0 36 39 26 65 -8 21 -33 19
-46 -5z"/>
<path d="M1470 1730 c0 -5 9 -10 20 -10 11 0 20 5 20 10 0 6 -9 10 -20 10 -11
0 -20 -4 -20 -10z"/>
<path d="M2332 1648 c-16 -16 -15 -43 1 -57 11 -8 18 -6 31 8 31 35 1 82 -32
49z"/>
<path d="M2515 1640 c-3 -5 3 -10 15 -10 12 0 18 5 15 10 -3 6 -10 10 -15 10
-5 0 -12 -4 -15 -10z"/>
<path d="M1916 1703 c-11 -11 -6 -23 9 -23 8 0 15 4 15 9 0 13 -16 22 -24 14z"/>
<path d="M2676 1631 c-3 -5 1 -12 10 -15 20 -8 29 -1 19 13 -8 13 -22 14 -29
2z"/>
<path d="M1017 1404 c-14 -14 -7 -65 9 -71 21 -8 46 24 42 52 -3 20 -37 33
-51 19z"/>
<path d="M1580 1354 c-10 -12 -8 -14 14 -14 28 0 35 14 12 23 -8 3 -20 -1 -26
-9z"/>
<path d="M1935 1320 c-4 -6 5 -10 20 -10 15 0 24 4 20 10 -3 6 -12 10 -20 10
-8 0 -17 -4 -20 -10z"/>
<path d="M2100 1305 c0 -8 7 -15 15 -15 8 0 15 7 15 15 0 8 -7 15 -15 15 -8 0
-15 -7 -15 -15z"/>
<path d="M3015 973 c-3 -16 -16 -36 -28 -45 -12 -10 -16 -18 -9 -18 18 0 15
-21 -5 -36 -17 -13 -17 -14 5 -20 12 -3 22 -13 22 -20 0 -20 -59 -18 -66 1 -6
14 -8 13 -19 -1 -11 -16 -13 -16 -23 2 -11 19 -11 19 -26 -1 -11 -15 -17 -17
-27 -8 -8 8 -16 9 -29 1 -14 -9 -24 -7 -46 9 -68 47 -64 60 -64 -217 l0 -250
275 0 275 0 0 65 c0 62 -1 65 -25 65 -26 0 -45 -25 -45 -59 0 -14 -9 -23 -26
-27 -48 -12 -50 4 -20 163 44 226 37 208 79 211 l37 3 0 63 c0 35 -5 67 -12
74 -9 9 -9 15 0 24 7 7 12 20 12 30 0 16 -11 18 -114 18 l-114 0 -7 -27z m73
-87 c-2 -31 -7 -57 -13 -59 -11 -2 -20 97 -10 121 12 32 26 -6 23 -62z m52 18
c0 -28 4 -43 10 -39 6 3 10 17 10 31 0 33 17 64 35 64 16 0 35 -58 35 -107 0
-37 -7 -41 -26 -15 -13 16 -15 16 -24 0 -7 -10 -20 -16 -38 -14 -25 3 -27 7
-30 56 -2 29 -1 59 2 67 11 27 26 2 26 -43z m-237 -117 c38 -16 60 -53 55 -93
-2 -24 -8 -29 -34 -32 -28 -3 -31 0 -40 35 -7 28 -14 38 -29 38 -19 0 -20 -8
-23 -126 -2 -105 0 -128 12 -132 21 -8 46 19 46 49 0 21 5 24 35 24 33 0 35
-2 35 -36 0 -46 -14 -70 -50 -89 -56 -29 -132 -8 -150 41 -13 33 -13 245 0
279 10 26 58 54 93 55 10 0 32 -6 50 -13z m165 -184 l-3 -188 -30 0 -30 0 -3
188 -2 187 35 0 35 0 -2 -187z"/>
<path d="M3213 625 c-12 -53 -10 -65 13 -65 15 0 17 32 5 85 -7 29 -8 28 -18
-20z"/>
<path d="M1 445 l1 -60 10 49 c6 33 6 52 -2 60 -7 7 -10 -8 -9 -49z"/>
<path d="M786 492 c-2 -4 -7 -37 -11 -72 -3 -36 -8 -75 -11 -87 -3 -18 0 -23
15 -23 16 0 20 8 23 37 4 52 23 52 38 -1 15 -54 28 -52 61 12 l24 47 3 -47 c4
-56 27 -66 35 -15 16 90 18 145 8 152 -17 10 -32 -6 -65 -69 -16 -31 -32 -56
-36 -56 -3 0 -14 26 -24 58 -20 63 -44 89 -60 64z"/>
<path d="M142 433 c-7 -3 -19 -18 -28 -35 -31 -59 18 -112 81 -88 34 13 24 28
-15 22 -25 -4 -30 -1 -30 17 0 18 6 21 40 21 33 0 40 3 40 19 0 39 -45 61 -88
44z m52 -44 c-3 -5 -14 -9 -25 -9 -21 0 -26 26 -6 33 15 5 39 -12 31 -24z"/>
<path d="M274 415 c-13 -13 -24 -36 -24 -50 0 -32 36 -69 58 -60 22 10 32 10
60 1 21 -7 22 -5 22 61 l0 68 -46 2 c-37 1 -51 -3 -70 -22z m74 -36 c3 -29
-20 -54 -43 -45 -18 7 -20 47 -3 64 19 19 43 10 46 -19z"/>
<path d="M439 418 c-5 -9 -9 -37 -9 -62 0 -34 4 -46 15 -46 10 0 15 10 15 28
0 32 25 72 46 72 8 0 14 6 14 13 0 20 -70 16 -81 -5z"/>
<path d="M545 425 c-2 -5 -5 -34 -8 -62 -4 -46 -2 -53 14 -53 15 0 19 8 19 33
0 81 57 90 62 10 2 -35 7 -48 18 -48 20 0 26 110 8 122 -18 12 -110 10 -113
-2z"/>
<path d="M1025 415 c-56 -55 -10 -130 63 -104 28 10 52 44 52 74 0 24 -38 55
-65 55 -14 0 -37 -11 -50 -25z m73 -36 c3 -29 -20 -54 -43 -45 -15 5 -21 57
-8 70 16 16 48 1 51 -25z"/>
<path d="M1176 431 c-2 -3 -7 -32 -10 -63 -7 -54 -6 -58 13 -58 17 0 21 6 21
33 0 38 7 50 38 66 13 7 21 15 17 19 -8 8 -75 11 -79 3z"/>
<path d="M1300 427 c-20 -10 -26 -21 -28 -54 -3 -35 1 -44 22 -58 19 -13 32
-15 53 -8 39 13 40 31 1 30 -23 -2 -33 3 -36 16 -3 14 4 17 37 17 34 0 41 3
41 19 0 24 -26 51 -48 51 -9 0 -28 -6 -42 -13z m51 -32 c0 -5 -9 -11 -21 -13
-20 -3 -27 8 -13 22 10 9 34 3 34 -9z"/>
<path d="M0 323 c0 -8 14 -13 40 -13 22 0 40 4 40 9 0 5 -18 11 -40 13 -28 2
-40 0 -40 -9z"/>
<path d="M1417 334 c-13 -13 -7 -24 14 -24 11 0 19 5 17 12 -5 14 -22 21 -31
12z"/>
</g>
</svg>
