<?xml version="1.0" standalone="no"?>
<!DOCTYPE svg PUBLIC "-//W3C//DTD SVG 20010904//EN"
 "http://www.w3.org/TR/2001/REC-SVG-20010904/DTD/svg10.dtd">
<svg version="1.0" xmlns="http://www.w3.org/2000/svg"
 width="327.000000pt" height="402.000000pt" viewBox="0 0 327.000000 402.000000"
 preserveAspectRatio="xMidYMid meet">

<g transform="translate(0.000000,402.000000) scale(0.100000,-0.100000)"
fill="#000000" stroke="none">
<path d="M2186 3995 c6 -26 0 -30 -40 -25 -11 1 -15 -3 -12 -9 4 -6 4 -11 -1
-12 -70 -4 -97 -9 -144 -23 -39 -12 -58 -23 -62 -36 -4 -15 -14 -20 -40 -20
-35 0 -36 1 -39 42 -5 69 -25 58 -24 -13 2 -47 6 -64 21 -75 31 -23 12 -25
-36 -3 -72 33 -73 35 -89 65 -14 29 -16 29 -32 12 -24 -24 -49 -23 -55 2 -3
11 -9 20 -13 20 -22 0 -40 -14 -40 -31 0 -10 -10 -25 -22 -33 -20 -14 -20 -16
-4 -16 15 0 16 -3 6 -15 -11 -13 -7 -15 24 -15 23 0 39 -5 42 -15 8 -21 -22
-65 -45 -65 -15 0 -19 -7 -17 -32 1 -25 -4 -35 -21 -43 -13 -5 -23 -13 -23
-17 0 -4 -16 0 -35 8 -26 10 -41 12 -54 4 -11 -5 -33 -7 -51 -4 -30 6 -31 6
-24 -20 5 -21 1 -32 -14 -47 -12 -10 -24 -36 -27 -56 -10 -61 -17 -68 -78 -73
-76 -7 -88 -21 -76 -85 10 -53 -3 -100 -26 -91 -7 2 -10 -6 -7 -25 3 -22 0
-29 -12 -29 -11 0 -16 -9 -16 -30 0 -32 -9 -36 -40 -20 -24 13 -44 -11 -34
-42 4 -13 8 -30 9 -38 1 -8 10 -32 19 -52 20 -47 21 -102 1 -118 -8 -7 -15
-18 -15 -24 0 -13 67 -46 93 -46 10 0 17 -7 17 -16 0 -12 -7 -15 -25 -12 -39
8 -30 -17 10 -29 19 -6 44 -9 55 -6 11 3 20 0 20 -6 0 -6 -7 -11 -15 -11 -9 0
-34 -12 -57 -27 -28 -19 -53 -27 -79 -27 -34 1 -39 -1 -39 -21 0 -29 -24 -48
-50 -40 -16 5 -20 2 -20 -18 0 -14 7 -27 15 -31 8 -3 15 -14 15 -25 0 -14 5
-19 15 -15 9 4 15 1 15 -7 0 -7 12 -1 28 14 19 18 35 25 45 21 20 -7 31 -44
23 -72 -5 -15 -1 -21 19 -26 22 -6 25 -11 23 -45 -1 -34 -6 -41 -35 -55 -20
-10 -33 -23 -33 -35 0 -10 -12 -27 -27 -36 l-26 -18 24 -18 c13 -10 24 -24 24
-31 0 -25 30 -78 46 -83 33 -11 30 -45 -7 -83 -37 -38 -55 -83 -35 -90 6 -2
17 -9 24 -16 6 -6 25 -19 41 -30 23 -14 27 -23 24 -47 -3 -17 1 -34 9 -40 19
-16 16 -37 -7 -44 -11 -3 -20 -13 -20 -22 0 -13 3 -13 16 -2 13 10 17 10 25
-2 15 -25 10 -39 -15 -39 -18 0 -26 -6 -28 -22 -4 -25 4 -36 87 -117 42 -42
55 -61 55 -84 0 -44 73 -114 128 -123 37 -6 42 -10 48 -40 7 -39 64 -90 64
-58 0 10 3 14 7 11 3 -4 -2 -22 -12 -40 -25 -48 -11 -91 33 -95 28 -3 32 -8
37 -40 11 -61 13 -63 47 -60 25 2 36 10 46 31 8 16 20 31 27 34 22 8 105 -39
120 -67 7 -14 27 -38 43 -54 27 -25 29 -31 20 -59 -10 -28 -8 -32 23 -59 19
-15 53 -34 77 -40 50 -14 53 -29 12 -60 -39 -28 -25 -42 31 -29 24 5 57 13 73
16 l30 6 -26 22 c-17 15 -28 36 -32 65 -6 40 -5 42 18 42 21 0 31 -12 62 -70
22 -43 57 -89 88 -117 45 -41 48 -45 24 -39 -16 4 -28 2 -28 -3 0 -14 -41 -51
-55 -51 -14 0 -35 43 -35 70 0 10 -4 21 -9 25 -5 3 -52 -2 -105 -10 -52 -8
-108 -14 -123 -13 -15 1 -41 -6 -56 -17 -25 -16 -27 -22 -20 -49 8 -30 8 -109
1 -171 -2 -24 1 -31 18 -33 16 -2 25 -14 33 -46 16 -63 26 -186 15 -186 -5 0
-40 31 -77 68 -49 49 -66 73 -61 85 3 9 3 17 0 17 -17 0 -108 -53 -168 -98
-40 -31 -69 -46 -71 -39 -3 8 -11 6 -23 -6 -16 -15 -19 -32 -18 -110 1 -51 -3
-95 -8 -98 -7 -4 -6 -14 1 -28 l12 -21 872 0 c666 0 876 3 885 12 9 9 12 455
12 1945 0 1922 0 1932 -20 1943 -11 6 -20 21 -20 33 0 14 -12 32 -30 46 -17
12 -28 26 -25 32 17 27 -138 -11 -213 -53 -37 -20 -46 -22 -37 -8 3 5 -10 16
-29 24 -18 8 -38 22 -43 31 -9 15 -13 15 -31 4 -17 -11 -24 -11 -34 -1 -16 16
-45 15 -51 0 -3 -10 -7 -10 -19 -1 -11 10 -82 13 -277 13 l-261 -1 6 -24z
m899 -24 c7 -12 -12 -24 -25 -16 -11 7 -4 25 10 25 5 0 11 -4 15 -9z m-1148
-1946 c-7 -16 -47 -22 -47 -7 0 9 42 32 49 26 2 -2 1 -10 -2 -19z m447 -23
c-6 -4 -14 -14 -17 -22 -4 -10 -6 -8 -6 8 -1 15 5 22 17 22 10 0 13 -3 6 -8z
m46 -153 c0 -11 -10 -24 -22 -29 -18 -7 -19 -9 -5 -9 9 -1 17 -5 17 -11 0 -5
7 -10 16 -10 10 0 14 -6 11 -14 -4 -10 4 -18 24 -25 16 -5 29 -15 29 -20 0
-15 -23 -14 -38 1 -16 16 -29 1 -16 -20 6 -9 31 -20 54 -24 24 -4 50 -14 58
-22 12 -12 11 -16 -7 -26 -25 -13 -133 -11 -142 3 -4 5 -17 9 -30 8 -93 -2
-97 -1 -102 21 -8 30 1 45 36 59 18 7 44 22 58 34 21 17 23 23 13 33 -7 7 -21
12 -31 13 -16 0 -16 1 2 8 19 8 19 8 -2 15 -13 4 -23 10 -23 14 0 13 45 27 73
23 19 -2 27 -9 27 -22z m650 -29 c6 -11 16 -17 22 -14 6 4 8 3 4 -4 -3 -5 0
-12 6 -15 10 -4 11 -7 1 -18 -7 -7 -13 -21 -13 -30 0 -19 -33 -34 -50 -24 -5
3 -10 2 -10 -3 0 -16 -70 -20 -130 -9 -62 12 -108 36 -90 47 7 4 12 11 11 16
0 5 10 8 22 7 12 -1 29 1 37 3 13 4 13 6 0 14 -13 8 -12 10 3 10 9 0 17 -4 17
-9 0 -6 12 -3 28 5 15 7 34 14 42 14 8 1 26 7 40 15 34 20 47 18 60 -5z
m-1318 -81 c1 -65 -10 -102 -36 -121 l-24 -17 -7 45 c-7 49 10 144 29 156 19
13 38 -18 38 -63z m1048 32 c0 -17 -34 -22 -49 -6 -14 13 -12 15 17 15 18 0
32 -4 32 -9z m-624 -113 c-2 -18 -4 -36 -5 -40 -1 -11 -79 -10 -86 1 -5 9 69
68 87 70 4 1 6 -14 4 -31z m454 -258 c20 -6 15 -8 -25 -9 -27 0 -57 4 -65 9
-19 12 52 12 90 0z m-432 -134 c25 -4 41 -1 52 9 22 20 53 19 81 -4 22 -17 27
-17 44 -5 22 17 77 18 92 3 8 -8 17 -8 31 0 29 16 57 14 73 -5 11 -14 10 -19
-11 -36 -16 -13 -33 -18 -51 -14 -17 3 -32 0 -39 -9 -9 -11 -38 -14 -118 -14
-58 0 -110 3 -116 7 -12 7 -23 10 -66 19 -33 6 -45 31 -35 71 7 26 8 26 17 6
7 -14 23 -24 46 -28z m462 -6 c0 -23 -26 -44 -45 -36 -24 9 -30 37 -11 51 22
17 56 7 56 -15z m70 6 c0 -3 -4 -8 -10 -11 -5 -3 -10 -1 -10 4 0 6 5 11 10 11
6 0 10 -2 10 -4z m-585 -142 c21 -33 9 -49 -28 -35 -27 10 -45 50 -32 70 9 15
38 -2 60 -35z m540 31 c-11 -8 -26 -19 -33 -25 -38 -34 -130 -62 -202 -64 -69
-1 -75 1 -75 19 0 14 8 21 25 23 14 2 29 8 35 13 5 5 18 9 30 9 12 0 25 4 31
9 5 4 30 11 56 14 36 5 47 3 50 -8 2 -12 10 -11 43 5 48 22 68 25 40 5z m-325
-79 c0 -6 -4 -5 -9 3 -6 9 -11 10 -15 2 -13 -21 -27 -12 -16 10 9 16 14 18 26
8 8 -6 14 -17 14 -23z m-330 -841 c0 -6 -76 -45 -87 -45 -10 0 69 49 80 50 4
0 7 -2 7 -5z m15 -85 c3 -5 -1 -10 -9 -10 -9 0 -16 5 -16 10 0 6 4 10 9 10 6
0 13 -4 16 -10z m177 -73 c17 -14 21 -57 5 -57 -5 0 -7 6 -4 13 3 7 -4 19 -14
26 -11 6 -17 16 -14 21 3 6 -1 10 -9 10 -9 0 -16 5 -16 10 0 11 20 2 52 -23z
m188 -38 c0 -6 -4 -7 -10 -4 -5 3 -10 11 -10 16 0 6 5 7 10 4 6 -3 10 -11 10
-16z"/>
<path d="M2410 1079 c0 -5 5 -7 10 -4 6 3 10 8 10 11 0 2 -4 4 -10 4 -5 0 -10
-5 -10 -11z"/>
<path d="M1053 1165 c-12 -9 -32 -33 -44 -54 -28 -51 -100 -91 -161 -91 -52 0
-139 40 -162 74 -19 30 -96 61 -131 52 -18 -5 -25 -13 -25 -31 0 -13 -5 -27
-10 -30 -5 -3 -10 -15 -10 -25 0 -34 -23 -35 -51 0 -16 18 -26 37 -23 41 7 13
-14 20 -62 22 -37 1 -49 -3 -63 -22 -9 -12 -35 -33 -57 -45 l-39 -22 -70 34
c-38 19 -87 50 -107 70 l-37 35 0 -204 c0 -143 3 -199 10 -186 6 9 26 24 46
32 39 17 153 21 153 5 0 -5 17 -14 38 -20 52 -14 61 -22 72 -59 10 -36 5 -43
-70 -91 -29 -20 -58 -30 -83 -30 -21 0 -63 -11 -93 -25 -30 -14 -59 -25 -64
-25 -6 0 -10 -68 -10 -174 l0 -174 73 18 c39 10 93 21 118 24 57 8 74 27 82
89 8 55 26 94 64 135 37 40 118 52 181 27 23 -10 49 -15 57 -12 8 4 24 -6 39
-24 14 -16 27 -25 31 -19 10 16 104 83 162 116 29 16 53 32 53 36 0 8 -41 38
-52 38 -5 0 -8 -6 -8 -13 0 -22 -91 -59 -136 -56 -48 4 -57 15 -38 51 17 32
117 100 137 92 10 -3 16 5 21 27 4 24 10 30 22 25 11 -4 22 1 31 14 8 11 23
20 34 20 11 0 30 6 42 14 12 7 48 16 80 19 32 3 65 11 72 17 9 7 29 9 53 5 33
-5 47 -1 90 26 29 18 52 38 52 44 0 27 -31 85 -54 100 -14 9 -29 34 -36 61
-11 37 -20 49 -51 65 -46 23 -40 22 -66 4z m-459 -397 c9 -47 7 -61 -15 -87
-15 -18 -23 -21 -31 -13 -7 7 -24 12 -38 12 -33 0 -50 17 -50 51 0 31 14 44
66 63 49 17 60 12 68 -26z"/>
<path d="M1124 742 c8 -15 62 -70 120 -123 58 -53 125 -121 149 -150 24 -30
59 -69 76 -88 18 -19 39 -47 46 -62 24 -45 40 -42 125 22 44 33 82 64 85 69 3
4 -18 33 -46 64 -28 30 -48 59 -45 64 3 5 -4 28 -15 51 -19 40 -21 42 -42 28
-21 -13 -28 -10 -121 64 -92 72 -128 93 -96 54 21 -25 -31 -19 -72 9 l-36 24
-11 -24 c-9 -20 -16 -23 -38 -18 -16 3 -43 15 -61 25 l-32 18 14 -27z"/>
<path d="M1710 650 c0 -5 4 -10 9 -10 6 0 13 5 16 10 3 6 -1 10 -9 10 -9 0
-16 -4 -16 -10z"/>
<path d="M1220 492 c0 -5 9 -35 21 -68 11 -32 22 -67 24 -78 9 -42 16 -28 10
19 -8 63 -55 170 -55 127z"/>
</g>
</svg>
