<svg width="25" height="20" viewBox="0 0 25 20" fill="none" xmlns="http://www.w3.org/2000/svg">
<path d="M24.2083 5.15884C24.0485 4.85514 23.7448 4.7033 23.2972 4.7033H9.51101C9.20732 4.7033 8.95557 4.8032 8.75577 5.003C8.55597 5.2028 8.45607 5.45455 8.45607 5.75824C8.45607 6.06194 8.55597 6.31369 8.75577 6.51349C8.95557 6.71329 9.20732 6.81319 9.51101 6.81319H21.9546L21.3552 8.44356H10.7098C10.4061 8.44356 10.1544 8.54346 9.95457 8.74326C9.75477 8.94306 9.65487 9.19481 9.65487 9.4985C9.65487 9.8022 9.75477 10.0539 9.95457 10.2537C10.1544 10.4535 10.4061 10.5534 10.7098 10.5534H20.8996L20.3002 12.3516H8.91161L5.45907 1.10689C5.37915 0.947053 5.23529 0.807193 5.0275 0.687312C4.81971 0.567432 4.61191 0.507492 4.40412 0.507492H1.40712C1.11941 0.507492 0.871653 0.5994 0.663861 0.783217C0.456069 0.967033 0.352173 1.17882 0.352173 1.41858C0.352173 1.65834 0.456069 1.89011 0.663861 2.11389C0.871653 2.33766 1.11941 2.44955 1.40712 2.44955H3.80472L7.25727 13.5504C7.25727 13.6304 7.26126 13.6823 7.26926 13.7063C7.27725 13.7303 7.3212 13.7822 7.40112 13.8621L7.54498 14.006C7.59293 14.006 7.64488 14.03 7.70082 14.0779C7.75677 14.1259 7.80872 14.1499 7.85667 14.1499H8.14438H21.0435C21.2832 14.1499 21.503 14.0819 21.7028 13.9461C21.9026 13.8102 22.0345 13.6304 22.0984 13.4066L24.3522 6.04595C24.3522 5.55045 24.3042 5.25475 24.2083 5.15884ZM10.2543 15.4925C9.85467 15.4925 9.48304 15.5964 9.13939 15.8042C8.79573 16.012 8.52001 16.2917 8.31221 16.6434C8.10442 16.995 8.00052 17.3666 8.00052 17.7582C8.00052 18.1499 8.10442 18.5175 8.31221 18.8611C8.52001 19.2048 8.79573 19.4805 9.13939 19.6883C9.48304 19.8961 9.85067 20 10.2423 20C10.6339 20 11.0055 19.8961 11.3572 19.6883C11.7088 19.4805 11.9885 19.2048 12.1963 18.8611C12.4041 18.5175 12.508 18.1499 12.508 17.7582C12.508 17.3666 12.4041 16.995 12.1963 16.6434C11.9885 16.2917 11.7088 16.012 11.3572 15.8042C11.0055 15.5964 10.6379 15.4925 10.2543 15.4925ZM10.2543 18.6573C9.64688 18.6573 9.34318 18.3536 9.34318 17.7463C9.34318 17.4745 9.43509 17.2587 9.61891 17.0989C9.80272 16.9391 10.0105 16.8591 10.2423 16.8591C10.4741 16.8591 10.6818 16.951 10.8657 17.1349C11.0495 17.3187 11.1414 17.5225 11.1414 17.7463C11.1414 17.97 11.0495 18.1778 10.8657 18.3696C10.6818 18.5614 10.478 18.6573 10.2543 18.6573ZM19.557 15.4925C19.1574 15.4925 18.7857 15.5964 18.4421 15.8042C18.0984 16.012 17.8227 16.2917 17.6149 16.6434C17.4071 16.995 17.3032 17.3666 17.3032 17.7582C17.3032 18.1499 17.4071 18.5175 17.6149 18.8611C17.8227 19.2048 18.0984 19.4805 18.4421 19.6883C18.7857 19.8961 19.1534 20 19.545 20C19.9366 20 20.3082 19.8961 20.6599 19.6883C21.0115 19.4805 21.2912 19.2048 21.499 18.8611C21.7068 18.5175 21.8107 18.1459 21.8107 17.7463C21.8107 17.1389 21.5989 16.6114 21.1753 16.1638C20.7518 15.7163 20.2123 15.4925 19.557 15.4925ZM19.557 18.6573C19.3332 18.6573 19.1254 18.5614 18.9336 18.3696C18.7418 18.1778 18.6459 17.97 18.6459 17.7463C18.6459 17.5225 18.7418 17.3187 18.9336 17.1349C19.1254 16.951 19.3332 16.8591 19.557 16.8591C19.7807 16.8591 19.9845 16.951 20.1684 17.1349C20.3522 17.3187 20.4441 17.5225 20.4441 17.7463C20.4441 17.97 20.3522 18.1778 20.1684 18.3696C19.9845 18.5614 19.7807 18.6573 19.557 18.6573Z" fill="#9ACA3C"/>
</svg>
