<svg width="1151" height="76" viewBox="0 0 1151 76" fill="none" xmlns="http://www.w3.org/2000/svg">
<path d="M130.22 20.1515L157.292 3.34811L130.22 -13.4553L103.148 3.34811L130.22 20.1515Z" fill="#F0F0F0"/>
<path d="M428.013 20.1515L455.086 3.34811L428.013 -13.4553L400.941 3.34811L428.013 20.1515Z" fill="#F0F0F0"/>
<path d="M232.44 49.0907L275.382 75.6961L318.324 49.0907L275.382 22.4852L232.44 49.0907Z" fill="#F0F0F0"/>
<path d="M-466.302 54.2252L-431.762 75.6962L-317.405 5.21516L-203.049 75.6962L-168.508 54.2252L-133.968 75.6962L-19.6111 5.21516L94.7456 75.6962L129.286 54.2252L163.826 75.6962L278.183 5.21516L392.54 75.6962L427.08 54.2252L461.621 75.6962L575.977 5.21516V1.48106L461.621 -69L427.08 -47.5289L392.54 -69L278.183 1.48106L163.826 -69L129.286 -47.5289L94.7456 -69L-19.6111 1.48106L-133.968 -69L-168.508 -47.5289L-203.049 -69L-317.405 1.48106L-431.762 -69L-466.302 -47.5289L-500.843 -69L-618 3.34811L-500.843 75.6962L-466.302 54.2252ZM461.621 -52.6633L552.172 3.34811L461.621 59.3596L440.15 46.2902L509.23 3.34811L440.15 -39.594L461.621 -52.6633ZM483.092 3.34811L427.08 37.8885L371.069 3.34811L427.08 -31.1923L483.092 3.34811ZM392.54 -52.6633L414.011 -39.594L344.93 3.34811L414.011 46.2902L392.54 59.3596L301.988 3.34811L392.54 -52.6633ZM163.826 -52.6633L254.378 3.34811L163.826 59.3596L142.822 46.2902L211.903 3.34811L142.822 -39.594L163.826 -52.6633ZM185.297 3.34811L129.286 37.8885L73.2746 3.34811L129.286 -31.1923L185.297 3.34811ZM94.7456 -52.6633L116.217 -39.594L47.1359 3.34811L116.217 46.2902L94.7456 59.3596L4.19379 3.34811L94.7456 -52.6633ZM-133.968 -52.6633L-43.416 3.34811L-133.968 59.3596L-154.972 46.2902L-85.8913 3.34811L-154.972 -39.594L-133.968 -52.6633ZM-112.497 3.34811L-168.508 37.8885L-224.52 3.34811L-168.508 -31.1923L-112.497 3.34811ZM-203.049 -52.6633L-181.578 -39.594L-250.658 3.34811L-181.578 46.2902L-203.049 59.3596L-293.6 3.34811L-203.049 -52.6633ZM-431.762 -52.6633L-341.21 3.34811L-431.762 59.3596L-453.233 46.2902L-384.152 3.34811L-453.233 -39.594L-431.762 -52.6633ZM-466.302 -31.1923L-410.291 3.34811L-466.302 37.8885L-522.314 3.34811L-466.302 -31.1923ZM-500.843 -52.6633L-479.372 -39.594L-548.452 3.34811L-479.372 46.2902L-500.843 59.3596L-591.395 3.34811L-500.843 -52.6633Z" fill="#F0F0F0"/>
<path d="M728.608 20.1515L755.68 3.34811L728.608 -13.4553L701.536 3.34811L728.608 20.1515Z" fill="#F0F0F0"/>
<path d="M1026.4 20.1515L1053.48 3.34811L1026.4 -13.4553L999.331 3.34811L1026.4 20.1515Z" fill="#F0F0F0"/>
<path d="M830.829 49.0907L873.771 75.6961L916.713 49.0907L873.771 22.4852L830.829 49.0907Z" fill="#F0F0F0"/>
<path d="M533.036 49.0907L575.978 75.6961L618.92 49.0907L575.978 22.4852L533.036 49.0907Z" fill="#F0F0F0"/>
<path d="M727.675 54.2252L762.215 75.6962L876.572 5.21516L990.929 75.6962L1025.47 54.2252L1060.01 75.6962L1174.37 5.21516L1288.72 75.6962L1323.26 54.2252L1357.8 75.6962L1472.16 5.21516L1586.52 75.6962L1621.06 54.2252L1655.6 75.6962L1769.95 5.21516V1.48106L1655.6 -69L1621.06 -47.5289L1586.52 -69L1472.16 1.48106L1357.8 -69L1323.26 -47.5289L1288.72 -69L1174.37 1.48106L1060.01 -69L1025.47 -47.5289L990.929 -69L876.572 1.48106L762.215 -69L727.675 -47.5289L693.135 -69L575.977 3.34811L693.135 75.6962L727.675 54.2252ZM1655.6 -52.6633L1746.15 3.34811L1655.6 59.3596L1634.13 46.2902L1703.21 3.34811L1634.13 -39.594L1655.6 -52.6633ZM1677.07 3.34811L1621.06 37.8885L1565.05 3.34811L1621.06 -31.1923L1677.07 3.34811ZM1586.52 -52.6633L1607.99 -39.594L1538.91 3.34811L1607.99 46.2902L1586.52 59.3596L1495.97 3.34811L1586.52 -52.6633ZM1357.8 -52.6633L1448.36 3.34811L1357.8 59.3596L1336.33 46.2902L1405.41 3.34811L1336.33 -39.594L1357.8 -52.6633ZM1379.27 3.34811L1323.26 37.8885L1267.25 3.34811L1323.26 -31.1923L1379.27 3.34811ZM1288.72 -52.6633L1310.19 -39.594L1241.11 3.34811L1310.19 46.2902L1288.72 59.3596L1198.17 3.34811L1288.72 -52.6633ZM1060.01 -52.6633L1150.56 3.34811L1060.01 59.3596L1039.01 46.2902L1108.09 3.34811L1039.01 -39.594L1060.01 -52.6633ZM1081.48 3.34811L1025.47 37.8885L969.458 3.34811L1025.47 -31.1923L1081.48 3.34811ZM990.929 -52.6633L1012.4 -39.594L943.319 3.34811L1012.4 46.2902L990.929 59.3596L900.377 3.34811L990.929 -52.6633ZM762.215 -52.6633L852.767 3.34811L762.215 59.3596L740.744 46.2902L809.825 3.34811L740.744 -39.594L762.215 -52.6633ZM727.675 -31.1923L783.686 3.34811L727.675 37.8885L671.664 3.34811L727.675 -31.1923ZM693.135 -52.6633L714.606 -39.594L645.525 3.34811L714.606 46.2902L693.135 59.3596L602.583 3.34811L693.135 -52.6633Z" fill="#F0F0F0"/>
</svg>
